<svg xmlns="http://www.w3.org/2000/svg" viewBox="0 0 1736.04 215.1"><defs><style>.cls-1,.cls-21{fill:#020202;}.cls-2{fill:#eee;}.cls-3{fill:#fcfdfd;}.cls-4{fill:#0f69a3;}.cls-5{fill:#f69815;}.cls-20,.cls-6{fill:#fff;}.cls-7{fill:#e8702e;}.cls-8{fill:#fdfdfd;}.cls-9{fill:#e7651e;}.cls-10{fill:#403b39;}.cls-11{fill:#312c2a;}.cls-12{fill:#35302e;}.cls-13{fill:#383230;}.cls-14{fill:#5b5655;}.cls-15{fill:#fbfbfc;}.cls-16{fill:#f7f7f7;}.cls-17{fill:#1b3771;}.cls-17,.cls-18,.cls-19,.cls-20,.cls-21{fill-rule:evenodd;}.cls-18{fill:#e9b040;}.cls-19{fill:#cc2131;}</style></defs><g id="Layer_2" data-name="Layer 2"><g id="Layer_1-2" data-name="Layer 1"><path class="cls-1" d="M29,97.23c.57-1.82,1.61-3.64,1.65-5.47.17-9,.65-18-.08-26.88-.81-10,3.39-18.37,8-26.34C45.39,26.77,56.08,19,69.14,15.2c16.48-4.81,31.77-2,46.46,7.32,12.46,7.89,17.72,20.16,23.27,32.52.67,1.5.14,3.54.14,5.32,0,10.46-.08,20.92.08,31.38,0,1.83,1.06,3.66,1.63,5.49,4.94,0,9.11.07,13.29,0,5.47-.12,9.65,2.36,11.94,7,2,4,3.81,8.08,3.79,12.8-.11,25.7,0,51.4-.08,77.09,0,8.55-4.26,14.38-11.85,18.4a11.41,11.41,0,0,1-5.77,1.35q-67.15,0-134.32,0c-8.09,0-16.91-8.68-17.65-17-.08-.89,0-1.79,0-2.69,0-26.29-.19-52.59.13-78.88C.27,108.31,2.71,102.1,10,98.7a13.22,13.22,0,0,1,5.71-1.46C19.89,97.19,24.07,97.23,29,97.23Zm21.57-2.08c1.49.68,3,2,4.53,2q29.72.19,59.44,0c1.53,0,3-1.26,4.61-2,0-9.35.2-18.28-.09-27.2-.14-4.46-1.84-8.66-3.26-12.94-1.87-5.62-5.91-9.15-9.76-13-7.24-7.21-20.26-9.36-30.59-6.61C69.12,37.14,65,41,60.51,45.08c-6.84,6.2-9,14.43-9.74,22.84C50,76.78,50.58,85.77,50.58,95.15Zm50.35,40.48c-12-14.72-23.09-12.2-31.93.23,0,4.64-.9,9,.26,12.79,1.1,3.58,4.35,6.51,6.38,9.32-1.32,7.89-2.57,15.37-3.77,22.5,9.24,6.67,17.54,6.54,26.05-.27-1.27-7.27-2.59-14.8-4-22.94C101.65,152.28,101.78,144.2,100.93,135.63Z"/><path class="cls-2" d="M1221.76,84.66c3,.32,1.73,2.67,1.74,4.11.1,14.63.06,29.26.06,43.89,0,22.09-.07,44.19,0,66.28,0,6.8-2.74,11.62-9.12,13.95a23.24,23.24,0,0,1-7.7.94q-61.26.07-122.51,0-32.88,0-65.76,0c-9.52,0-15.09-5.43-15.1-14.76q-.06-54.19,0-108.38c0-3.67-.29-7.42,3.61-9.63v52h36.09c.52.21,1.41.33,1.48.65.79,3.27.65,7.06,2.34,9.73,2.09,3.29,1.38,7,3.11,10.4,2.58,5.1,3.23,11.16,4.66,16.66h14c3.46-8,6.94-16.13,10.47-24.22.94-2.16.87-4.93,3.59-6,.71.6,1.36,1.59,2.14,1.72a33.07,33.07,0,0,0,5.08.08c-.64,3.93,1.53,8.28-1.8,11.81,1.43,5.71-3.83,11-1.21,16.61h11.39c.89-2.74,2-5.06,2.38-7.5.82-5.7,1.19-11.46,1.94-17.17.17-1.31,1.14-2.51,1.74-3.75,3.12-.05,6.37.56,9-1.8.21,1.11.08,2.45.68,3.28,3.86,5.29,9.87,7.42,15.5,10,0,3,1,6.17-3.6,8.61l-17.75-2.1v8.31l2.47,2.45c5.63,0,11.35.45,17-.12,6.75-.68,12.48-3.34,15.29-10.35,2.33-5.79.86-11.09-4.23-14.72-3.12-2.22-7.32-3.16-9.09-7.11.14-2.24,1.87-2.33,3-1.4,2.09,1.78,3.92,2.12,6.08.49v-4.48h5.41v5.39h12.63c-1,5.8-3.56,11-6.3,16.13a73.25,73.25,0,0,0-6.55,16h12.35l4.55-6.78h15.36c1.54,7.39,1.54,7.39,13.47,6.22-1.09-5.22-2.15-10.41-3.26-15.6-.82-3.81-2.15-7.59-2.43-11.44-.29-4-3.17-7.54-1.92-11.73,13-3.19,26.23-1.11,39.7-2Z"/><path class="cls-1" d="M1503.74,61.34c-1.73-5.33,1.61-8.66,3-12-3.84-9.91-7.54-19.45-11.59-29.88-1.11,1.8-2,3.25-2.57,4.16h-6.38c-2.71,2.68-4.62,5.7-4.55,9.74.08,5,0,10,0,15.23h-8.7V15c3,0,6.39-1.66,9.44,1.34,2.66-2.59,6-1.46,9.11-1.59,3.6-.15,7.21,0,11,0,5.51,5.31,5,13.41,9.17,20.26l6.94-20.09h7.71c2.06,6.12-1.79,11.24-3.52,16.21-2.8,8.08-4.82,16.46-8.55,24.28-2.67,5.6-2.12,5.86-7.35,6C1506,61.36,1505.08,61.34,1503.74,61.34Z"/><path class="cls-1" d="M530.67,18.68l-5.45,6.87c-1.29,6.15,2,14-1.74,21.25h-8.8V22.13l-6.7-.41-4.44,5.67v19.3h-8.6V13.13h8l1.53,4.21c.78-2.27,1.37-4,1.51-4.37h12.71l5.38,4.67c1-2,1.77-3.59,2.25-4.57h12.32c4.77,3,6.07,8.21,6.3,13.73.26,5.92.06,11.87.06,17.44-3.49,4.08-6.81,3.41-10.14.9C532,36.88,537.58,27.49,530.67,18.68Z"/><path class="cls-1" d="M1001,14.55c4.09.94,8.68-1.48,12.57,1.74,2.43-5-1.81-11.24,3.05-15.79h8.2V48.06c-3.89,2.8-8.26-1.89-11.76-.39-4.21,1.8-8.17.26-12.2,1.3l-6.29-6.75C991.24,32.4,991,22.84,1001,14.55Zm8,6.55c-4.27,3.68-8.15,6.93-7.19,12.47.45,2.6,2.15,5.12,3.79,7.3.63.85,2.67.64,3.9.88l6.53-6.41v-7Z"/><path class="cls-1" d="M1649.23,16.86c.34-12.86.34-12.86,2.66-16.33.72-.06,1.57-.18,2.42-.19,1.77,0,3.53,0,5.63,0V49.22c-4.1-.67-8.55-2.82-11.56-1.56-4.26,1.77-8.19.16-11.92,1.26a19,19,0,0,1-8.71-16.13c-.18-7.4,2.06-13.58,8.5-18.19C1640.12,15.47,1644.76,13.08,1649.23,16.86Zm2,13.28-7.9-8.29c-3.42,2.91-7.26,6.19-6.34,11.71.44,2.6,2.15,5.12,3.79,7.3.63.85,2.67.65,4,.91,2.26-2.26,4.38-4.36,6.48-6.45Z"/><path class="cls-1" d="M1530.6,14.84h6.22l3.56,3.55c.82-1.19,1.65-2.38,2.36-3.42h12.16c5.47,4.07,8,9.8,8,16.91-.07,6.72-2.22,12.33-8.81,17.11l-14.36-1.29V60.8c-3.39.77-6.38,1.49-9.09-2Zm16.06,27.53,4.36-6.13,1,.92V26.1c-1.63-1.32-3.42-2.79-5.25-4.22-.19-.15-.59,0-1.09,0l-6.24,6.61v6.9Z"/><path class="cls-1" d="M400.8,30.83V47.05c-3.89-.66-7.86,1.69-10.95-2.88,0-12.14,0-24.65,0-37.16,0-.85.13-1.7.18-2.38.59-.59.94-1.18,1.45-1.41,4-1.75,18.55-1.5,22.37.34,6.75,3.24,10.15,10,8.48,17C421,26,414.57,30.7,408.13,30.82,405.78,30.87,403.43,30.83,400.8,30.83ZM401,9.43v14h5l5.38-4V14.61c-1.85-2.36-3.14-4-4.08-5.18Z"/><path class="cls-1" d="M1047,46.27V37.53l14.38,4.6,5.08-6.21a1.64,1.64,0,0,0-.26-1c-2.78-3.92-7.33-5.47-11.33-7.45a14.54,14.54,0,0,1-7-7c-1.52-3-1.83-5.24.06-8,1.22-1.8,1.84-4,3-6.65,2.19-.57,5.63-.47,7.43-2.12,4.84-4.42,8.85.1,13,.76,3.5.56,2.49,4.74,2.33,8.49-1.92-.42-3.7-.83-5.49-1.19-4-.78-8.1-2.32-10.72,2.7,1.6,4.15,5.51,5.48,8.95,7.41,3.21,1.8,6.33,3.75,9.18,5.46v15c-3.84,5.1-9,6.93-15.31,6.45C1055.65,48.49,1050.87,49.5,1047,46.27Z"/><path class="cls-1" d="M1292.59,37l6,2.8c6.62,3.09,7.7,2.85,13.46-3-.93-4.63-5.39-5.52-8.57-7.69-2-1.4-4.72-2-6.62-3.53-5.27-4.31-5.89-8-2.94-14.3.7-1.49,1.42-3,2.55-5.34,2-.64,5.36-1,7.76-2.6,5-3.43,8.9.19,12.87,1.51,3.33,1.1,2.26,4.83,1.55,8-5.18.85-11.14-5.84-16,1.67,3.53,7.56,13.56,6.91,18.15,13.84V42.41c-3.16,4.09-7.26,6.78-13.09,6.4-5.17-.33-10.57,1-15.19-2.3Z"/><path class="cls-1" d="M1273.7,42l5.73-5.7c0-.16,0-1-.29-1.23a83.29,83.29,0,0,0-7.55-5.69c-1.61-1-3.78-1.14-5.39-2.15-4.12-2.57-7.91-8.87-6.42-12.35,2-4.59,3.1-10.18,9.78-11,3.76-.46,6.83-2.84,11.3-.19,5.13,3,5.65,2.17,5.83,9.26-2-.39-3.77-.67-5.54-1.1-4-1-8-2.18-10.91,2.75,3.68,7.61,13.83,6.76,18.22,13.88V43l-8.09,5.9c-6.78-.78-14,1.78-20.5-2.55,0-2.61,0-5.21,0-8.75Z"/><path class="cls-1" d="M204,40.51c-3.9,5.29-9.14,7.08-15.43,6.49-4.28-.39-8.88,1.29-13.07-3.49V35.76L189,40.15l6.1-4.88a8.51,8.51,0,0,0-.65-2.18c-2.64-3.65-6.72-5.42-10.65-6.86-4.58-1.67-6.86-5.24-8.56-9-1.49-3.32.77-6.6,2.43-9.63.53-1,.91-2,1.6-3.6,2.27-.59,5.67-.51,7.52-2.15,4.86-4.29,8.85.13,12.94.87,3.64.66,2.17,4.84,2.56,8.6-2.29-.55-4.07-1-5.85-1.42-4-1-8-1.76-10.82,2.59,3.76,8.09,14.09,7,18.33,14.35Z"/><path class="cls-1" d="M783.82,5.78c2.79-.72,5.89-.63,7.55-2.13,4.82-4.36,8.83.13,12.93.87,3.65.66,2.12,4.85,2.58,8.62-2.34-.58-4.1-1.13-5.89-1.42-3.91-.65-8.17-2.39-10.67,2.89,3.64,7.75,13.92,6.72,18.18,13.87V42.31c-3.91,5.3-9.14,7-15.44,6.52-4.31-.32-8.78.61-13.06-2.72V37.56l13.49,4.37,6.17-4.87a9,9,0,0,0-.66-2.19c-2.64-3.65-6.72-5.43-10.66-6.85-4.6-1.66-6.85-5.26-8.54-9-1.49-3.31.74-6.61,2.44-9.63C782.77,8.42,783.13,7.36,783.82,5.78Z"/><path class="cls-1" d="M457.93,13.11h8.83c2.79,2.6,3.86,5.89,4.55,9.7.63,3.42,2.74,6.57,4.47,10.43l6.87-19.91h8.25c0,1.62.45,3.49-.07,5-4.59,13.57-9.36,27.09-14.15,40.82h-8.81c-1.54-4.78.82-8.35,3.25-11.75-2.48-5.73-5.06-11.23-7.24-16.88S460,19.24,457.93,13.11Z"/><path class="cls-1" d="M1396.48,29.09h-13.85V41.44h15.76v7h-24.46c.17.15-.09,0-.26-.24a1.44,1.44,0,0,1-.31-.76c0-14.31,0-28.62,0-43.22h24.84v6.72h-15.44V21.81h13.74Z"/><path class="cls-1" d="M1176.33,49.19c-4.19-.64-8.6-2.7-11.67-1.46-4.26,1.72-8.25-.22-11.71,1.38-5.2-3.88-7.37-8.47-7.06-14.51.33-6.48.08-13,.08-19.7h8.66V36.1l6.74,5.87c.79-1.56,1.87-3.7,3-5.84l1.53,1.24v-20c3.48-3.84,6.78-3.55,10.47-.43Z"/><path class="cls-1" d="M281.18,47.28c-5.21-4.24-7.33-8.87-6.92-14.94s.09-12.47.09-19.08h8.83V35.5l6.34,3.94,4.7-3.94V15.56c4.82-3.64,5.6-3.66,10.66-.18V46.47c-4.17,1.65-7.89-.07-11.67-1.19C289.71,49,285.21,45.86,281.18,47.28Z"/><path class="cls-1" d="M576.69,47H559c-6.21-4.3-9.32-9.89-8.65-17.72.63-7.29,3.46-12.83,10-16.35,15.58-.06,15.58-.06,20.77,8,0,3.58,0,7.16,0,11.41-3.12.09-6.3.21-9.48.26s-6.52,0-9.62,0c-1.69,3.19-.53,5.29,2.1,7.24,4.27-.67,9.13,1.35,14.39-2.67l3.29,4.44Zm-15-20h10.11c1.51-5.28-2.47-6.66-5.24-9.23C563.77,20.54,560.11,22.16,561.65,26.93Z"/><path class="cls-1" d="M238.26,32.66H219.14c-1.7,3.22-.44,5.29,2.12,7.21,4.3-.68,9.17,1.35,14.31-2.58.48,1.62,1,3.4,1.75,5.93l-4.55,2.31L234,46.86H214.78a5.35,5.35,0,0,0-1.39-2.1c-8.52-6.46-7.27-19.27-1.42-28,.84-1.25,2.77-1.84,4.27-2.57,4.3-2.09,14.25-1.88,17.55.64a11.2,11.2,0,0,1,4.42,8C238.46,25.74,238.26,28.74,238.26,32.66ZM229,27c1.38-5-2.34-6.67-5.47-9.73-2.24,3.45-6.89,4.76-4.58,9.73Z"/><path class="cls-1" d="M361.93,38.45l6.63,2.88-7.63,4.45L362,46.85a6.24,6.24,0,0,1-.85.13H343.47l-7.76-9.32c0-3.81-.63-7.24.14-10.33,1.3-5.27,2.24-11,8.59-13.33,3.87-1.42,11.25-1.23,15.21.15,4.81,1.68,6.51,5.09,6.71,9.67.12,2.67,0,5.34,0,8.63H347c0,6.33.63,7.16,4.95,7.35C357.62,40.06,358.77,39.87,361.93,38.45ZM346.76,27.34c3.39-.44,7,.46,10.33-.53,1.22-5.15-2.46-6.52-5-9.08C349,20.27,345.6,21.88,346.76,27.34Z"/><path class="cls-1" d="M1109.87,34.64h-19.48c.2,6.14.69,6.76,5.17,7,5.58.24,6.68.06,11.16-1.89a18.25,18.25,0,0,1,1.87,1.55,26,26,0,0,1,1.82,2.39l-7.23,5.1H1087a15.09,15.09,0,0,0-2.15-2.4c-8.51-6.59-6.91-19.61-1.09-28,.58-.85,1.81-1.3,2.8-1.83,5.17-2.8,10.63-2.46,16-1,5,1.41,7.31,5.08,7.33,10.2C1109.88,28.39,1109.87,31.05,1109.87,34.64Zm-9.23-5.84c1-5.35-2.45-7-5.59-9.14-2.56,2.82-6.55,4.38-4.5,9.14Z"/><path class="cls-1" d="M1215.41,48.78a27.14,27.14,0,0,0-2.52-2.51c-8.52-6.66-6.78-19.83-.93-28,.72-1,2.39-1.34,3.64-1.95,4.86-2.38,13.3-2.26,17.48.15,3.3,1.9,4.41,5.11,4.84,8.48a74.8,74.8,0,0,1,.08,9.15h-18.84c-.72,4.15-.72,4.15,1.72,7.76L1236,40.5s.82,1.24,2,3.09l-4.36,5.19Zm8.21-29.49c-3,3.08-7.07,4.74-5,9.51h9.82C1230.49,24,1226.51,22.48,1223.62,19.29Z"/><path class="cls-1" d="M1622.37,34.42h-19.12c-1.64,3.27-.54,5.39,2.36,7.21,4.09-.64,9,1.39,14.15-2.58l4,4.73-6.86,3.6,1.19,1.29H1599a6,6,0,0,0-1.46-2.14c-8.5-6.43-7.28-19.26-1.38-28,.84-1.25,2.77-1.84,4.27-2.57,4.29-2.07,14.25-1.84,17.54.69a11,11,0,0,1,4.41,8C1622.55,27.57,1622.37,30.57,1622.37,34.42Zm-14.5-15.53c-2.48,3.55-7,4.8-4.91,9.66H1613C1614.55,23.39,1610.44,22.27,1607.87,18.89Z"/><path class="cls-1" d="M898.74,34.68H878.39L880.24,41c10.51.78,10.51.78,15.54-1.38,1.23.9,2.57,1.88,4.55,3.31l-8.16,5.81H876a21.31,21.31,0,0,0-2.34-2.46c-8.52-6.67-6.83-19.69-1-28,.59-.85,1.84-1.25,2.81-1.81,5.17-3,10.64-2.38,16-.9,5,1.38,7.27,5.1,7.3,10.2C898.75,28.44,898.74,31.09,898.74,34.68ZM884.2,19.43c-2.87,3-6.68,4.59-4.88,9.24h10.12C890.76,23.86,887.26,22.21,884.2,19.43Z"/><path class="cls-1" d="M956.8,14.85h8.08c.44,1.21.82,2.24,1.41,3.88,3.71-6.47,9.62-3.21,14.34-4.14,4.71,3.89,7.08,8.41,6.63,14.55s-.1,12.52-.1,19.21h-8.68C976.9,40.44,980.3,32,975.78,24h-6.11l-4.39,4.49V48.6H956.8Z"/><path class="cls-1" d="M607.72,21.94h-6L597.28,27V46.73h-8.55V13.1h8.08c.37,1,.75,2,1.51,4l2.46-4.2h12.38l5.59,7.58V46.81h-8.39C608.8,38.57,612.1,29.79,607.72,21.94Z"/><path class="cls-1" d="M1430,14.6c4.67,3.87,7.07,8.37,6.62,14.51s-.1,12.53-.1,19.23h-9c0-4.06.15-8.19,0-12.3-.19-3.93-.73-7.85-1.14-12H1419l-4.35,4.52V48.59h-8.49V15l8-.35,1.51,4C1419.34,12.29,1425.22,15.47,1430,14.6Z"/><path class="cls-1" d="M828.88,21.59l-14.47,2.23c0-5.66,2.09-8.62,6.82-9.06a78.48,78.48,0,0,1,12.55,0c3.51.25,7.12,4.76,7.18,8.78.11,8.27,0,16.54,0,25.65-3.79-.72-7.66-2.74-10-1.62-3.6,1.72-6.91,1-10.29,1.08-2.08.06-4.2-1.24-6.95-2.15-.67-3.61-1.37-7.43-2-10.8l6.58-6.54h12.76C833.11,26,831.73,24,828.88,21.59ZM820,37.09c1.74,2,2.58,3.8,3.93,4.37a6.64,6.64,0,0,0,5.14,0c2.58-1.51,4.48-3.84,1.52-7.7Z"/><path class="cls-1" d="M949.27,49.17c-3.87-.69-7.65-2.58-10.15-1.52-3.59,1.53-6.91.86-10.31,1-1.81.07-3.68-1.1-6.38-2L919.78,36l8.07-7h11.63c1.72-3.16.59-5.27-2.4-7.48l-14.52,2.26c.17-5.54,2-8.12,6.18-9.13a7.14,7.14,0,0,1,1.79,0c5.47.16,11.71-1.61,16.05,2.19s2.63,9.7,2.67,14.83C949.31,37.05,949.27,42.41,949.27,49.17ZM929.35,37.4c.73,4.55,4.12,4.61,7.25,4.11,3.63-.58,4.19-3.33,3.28-6.7C935.81,33.34,932.58,35.3,929.35,37.4Z"/><path class="cls-1" d="M425.94,33.52l6.16-6.12h12.82c1.88-3.09,1.07-5.27-2.68-7.53l-14,2.14c-.12-5.6,2-8.59,6.7-9a75.13,75.13,0,0,1,12.55,0c3.63.25,7.18,4.6,7.24,8.71.13,8.27,0,16.55,0,24.63-3.66,1.67-6.92-1.33-9.22-.72A46.35,46.35,0,0,1,436.36,47c-7.57.47-10.46-4.64-10.42-10.13ZM433,35.35c2.72,2.35,3.78,3.89,5.18,4.33a7.32,7.32,0,0,0,5.08-.24c2.54-1.33,3.4-3.71,1.53-7.31Z"/><path class="cls-1" d="M1326.42,47V4.25h10.51c.78,11.36,0,23.13.46,35.47h14.11v9.15C1343.18,47.83,1334.67,50.76,1326.42,47Z"/><path class="cls-1" d="M850.15,14.43c-.95-6,1.67-10.26,6.16-13.94h10.05c.71,1.92,1.47,4,2.45,6.63h-7l-3.2,7.28H866c.12,2.24.22,4.22.33,6.51l-7.23,3.43V48.58h-8.78V24.9c-2.52-1.74-6.06-2-5.75-5.87C844.85,15.93,846.86,14.61,850.15,14.43Z"/><path class="cls-1" d="M670.38,21.31c-4.17-1.57-8.15-2.79-11.73,1.64a24.71,24.71,0,0,0,3.64,2.45c1.76.79,3.89.91,5.48,1.9,6.54,4.09,10.16,10,3.33,17.26-.81.87-1.54,1.8-2,2.39H652.43c-3.4-2.23-3.07-5.33-2.19-9.48,2.28.85,4.22,1.91,6.28,2.25a48,48,0,0,0,7.33.08V34.92c-4.85-2.08-10.89-3-14.1-9.08V19.07l6.78-6.18c3.31,0,7.21.19,11.08-.07,2.42-.17,4.36.64,5.18,2.54C673.73,17.56,673.78,20.1,670.38,21.31Z"/><path class="cls-1" d="M254.5,35.29c5.2,5,5.2,5,13.63,1,.94,6.63.94,6.63-1.53,10.31-.25.12-.5.35-.75.35-4.49,0-9,0-13.89,0-3.22-2.83-7.29-5.79-8.07-10.39a25.55,25.55,0,0,1,.91-12.89c4-10.39,6.19-11.89,21.79-10.45,3.86,2.95,2.15,6.71,2,10.52-8.88-4.22-8.88-4.22-14.08.81Z"/><path class="cls-1" d="M1137.89,14.73l2.42,2.4V26L1131.05,21l-4.79,6.71v9.72l4.45,3.24c3.84,3.06,5.28-2.51,9.38-3,.21,3,.41,5.74.58,8.27l-2.8,2.79h-14c-8.82-5.7-10.59-14-7.8-23C1119.31,15.41,1121.74,14.62,1137.89,14.73Z"/><path class="cls-1" d="M1464.52,14.72c.84.85,1.69,1.69,2.42,2.41V26l-9.2-4.9-4.84,6V37.49l6,4.11a28.31,28.31,0,0,0,3.46-1.51,42.79,42.79,0,0,0,4.33-3.35c.28,3.93.48,6.68.66,9.22l-2.81,2.79h-14c-8.81-5.69-10.59-14-7.8-23C1445.91,15.44,1448.38,14.63,1464.52,14.72Z"/><path class="cls-1" d="M1579.29,24.12V38.6c1.64,4.54,5.76,2.2,9.21,3.68-.66,2.15-1.27,4.2-1.9,6.26h-12.29A13.56,13.56,0,0,1,1570,37.05c.28-4.15.06-8.33.06-12.51-2.24-1.47-5.59-1.66-5.49-5.66.1-3.69,3.11-3.68,5.38-4.92l.27-6.2h8.6c.15,2,.31,4.26.46,6.44,7.35.77,8.83,1.63,8.83,5S1586.68,23.36,1579.29,24.12Z"/><path class="cls-1" d="M637.1,5.71v6.58c7.33.86,8.89,1.74,9,4.92.11,3.46-1.42,4.36-8.74,5V38.13l8.31,2.39c-.1,5.53-.66,6.31-5,6.45-2.69.08-5.38,0-8.07,0-3.79-3.34-4.82-7.61-4.55-12.46.21-3.86,0-7.74,0-11.63-2.16-1.53-5.6-1.75-5.45-5.64.14-3.38,2.66-4,5.45-5,0-1,.05-2.16,0-3.3C628,7,628,5.33,630.76,5.67A58.49,58.49,0,0,0,637.1,5.71Z"/><path class="cls-1" d="M312.55,12.34c3.67.69,7.6,2.7,9.92,1.54,3.46-1.71,6.27,0,9.46-1.4v9.08h-6.32l-4.32,6.75V46.64l-8.74.42Z"/><path class="cls-1" d="M1184,48.46V14.51c3.46.71,7-1.06,9.93,1.81,2.64-3.08,6.07-.93,9.44-1.89v8.83l-6.23.65c-3.58,3.26-4.56,7.25-4.32,11.81.22,4.13,0,8.29,0,12.74Z"/><path class="cls-2" d="M1012.43,77.49c.47-.6.9-1.66,1.43-1.72,2.09-.2,4.2-.08,6.31-.08q93.32,0,186.63.12c2.51,0,5.94-2.25,7.74,1.68Z"/><path class="cls-2" d="M1220,81.08c2.7.15,1.54,2.22,1.81,3.58C1219.06,84.51,1220.22,82.44,1220,81.08Z"/><path class="cls-2" d="M1214.54,77.49c1.37.27,3.45-.89,3.61,1.79C1216.78,79,1214.69,80.17,1214.54,77.49Z"/><path class="cls-2" d="M1008.82,79.28c.15-2.68,2.24-1.52,3.61-1.79C1012.27,80.17,1010.18,79,1008.82,79.28Z"/><path class="cls-2" d="M1218.15,79.28l1.8,1.8Z"/><path class="cls-2" d="M1007,81.08l1.81-1.8Z"/><path class="cls-3" d="M1007,81.08l1.81-1.8c1.36-.27,3.45.89,3.61-1.79h202.11c.15,2.68,2.24,1.52,3.61,1.79l1.8,1.8c.27,1.36-.89,3.43,1.81,3.58v44.63c-13.47.92-26.74-1.16-39.7,2-.87-2.31-1.73-4.62-2.62-7h-15.5c-1.15,2.67-2.29,5.47-3.56,8.2-1,2.12-.84,4.92-3.59,6h-12.63v-5.39c1.63-2.76,2.8-5.59,1.11-9-12.34-4-23-1.77-31.79,8.13v8c-2.65,2.36-5.9,1.75-9,1.8v-1.8l1.8-1.79v-14h-13c-.48,5.6-.9,10.92-1.48,16.22,0,.52-1.13.93-1.73,1.39a33.07,33.07,0,0,1-5.08-.08c-.78-.13-1.43-1.12-2.14-1.72l5.34-15.79h-13.77c-3.29,9.23-6.44,18.35-11.58,28.12-1.51-3.82-2.48-6.28-3.44-8.74-.61-5.52-1-11.07-2-16.53-.21-1.23-2.26-2.15-3.46-3.21-.2-.49-.39-1-.59-1.49l-1.21,1.49c-6.57.14-13.18-.29-20.74.32l11.71,5.07v3.58H1007Z"/><path class="cls-4" d="M1156.79,138.5c2.75-1.08,2.61-3.88,3.59-6,1.27-2.73,2.41-5.53,3.56-8.2h15.5c.89,2.4,1.75,4.71,2.62,7-1.25,4.19,1.63,7.73,1.92,11.73.28,3.85,1.61,7.63,2.43,11.44,1.11,5.19,2.17,10.38,3.26,15.6-11.93,1.17-11.93,1.17-13.47-6.22h-15.36l-4.55,6.78h-12.35a73.25,73.25,0,0,1,6.55-16C1153.23,149.5,1155.8,144.3,1156.79,138.5Zm13.89-3.42c-2.88,7.48-5,13.08-7.4,19.22h10.32Z"/><path class="cls-4" d="M1113.48,140.29v-8c8.76-9.9,19.45-12.15,31.79-8.13,1.69,3.41.52,6.24-1.11,9h-5.41a72.82,72.82,0,0,0-8.87.09c-2.45.3-4.18,1.77-3.44,5.3h3.28c1.77,3.95,6,4.89,9.09,7.11,5.09,3.63,6.56,8.93,4.23,14.72-2.81,7-8.54,9.67-15.29,10.35-5.62.57-11.34.12-17,.12l-2.47-2.45V160l17.75,2.1c4.57-2.44,3.59-5.59,3.6-8.61-5.63-2.54-11.64-4.67-15.5-10C1113.56,142.74,1113.69,141.4,1113.48,140.29Z"/><path class="cls-4" d="M1043.1,133.11v-3.58c7.33,2.64,11.39,8.94,16.25,14.35,1,2.46,1.93,4.92,3.44,8.74,5.14-9.77,8.29-18.89,11.58-28.12h13.77l-5.34,15.79c-2.72,1.11-2.65,3.88-3.59,6-3.53,8.09-7,16.2-10.47,24.22h-14c-1.43-5.5-2.08-11.56-4.66-16.66-1.73-3.42-1-7.11-3.11-10.4-1.69-2.67-1.55-6.46-2.34-9.73C1044.51,133.44,1043.62,133.32,1043.1,133.11Z"/><path class="cls-4" d="M1104.46,140.29v1.8c-.6,1.24-1.57,2.44-1.74,3.75-.75,5.71-1.12,11.47-1.94,17.17-.35,2.44-1.49,4.76-2.38,7.5H1087c-2.62-5.56,2.64-10.9,1.21-16.61,3.33-3.53,1.16-7.88,1.8-11.81.6-.46,1.68-.87,1.73-1.39.58-5.3,1-10.62,1.48-16.22h13v14Z"/><path class="cls-3" d="M1129.72,138.5h-3.28c-.74-3.53,1-5,3.44-5.3a72.82,72.82,0,0,1,8.87-.09v4.48c-2.16,1.63-4,1.29-6.08-.49C1131.59,136.17,1129.86,136.26,1129.72,138.5Z"/><path class="cls-2" d="M1223.62,19.29c2.89,3.19,6.87,4.75,4.83,9.51h-9.82C1216.55,24,1220.59,22.37,1223.62,19.29Z"/><path class="cls-5" d="M1059.35,143.88c-4.86-5.41-8.92-11.71-16.25-14.35l-11.71-5.07c7.56-.61,14.17-.18,20.74-.32h1.8c1.2,1.06,3.25,2,3.46,3.21C1058.33,132.81,1058.74,138.36,1059.35,143.88Z"/><path class="cls-2" d="M1053.93,124.14h-1.8l1.21-1.49C1053.54,123.15,1053.73,123.65,1053.93,124.14Z"/><path class="cls-2" d="M1104.46,140.29l1.8-1.79Z"/><path class="cls-2" d="M1170.68,135.08l2.92,19.22h-10.32C1165.65,148.16,1167.8,142.56,1170.68,135.08Z"/><path class="cls-4" d="M1489.37,75.17h229.87A16.81,16.81,0,0,1,1736,92V197.26a17.85,17.85,0,0,1-17.85,17.84H1488.8A17.11,17.11,0,0,1,1471.68,198V92.86A17.69,17.69,0,0,1,1489.37,75.17Zm47.4,50.43a16.13,16.13,0,0,1-.73-1.47c-1.63-4.46-3.3-8.9-4.84-13.38-.6-1.75-1.52-2.48-3.76-2.15a24.83,24.83,0,0,1-6.78,0c-2.65-.33-3.5.54-2.5,4.37a40.55,40.55,0,0,1,.1,20c-.79,3.2-.87,4.94,1.36,4.79a24.16,24.16,0,0,1,4,0c1.82.17,2.38-.57,2.35-2.3-.08-4.53,0-9.07,0-13.61,0-.55.1-1.1.16-1.64,1.94,4.24,3.44,8.51,5.07,12.72,1.9,4.95,1.95,4.88,7.18,4.84A2.37,2.37,0,0,0,1541,136c1.17-3.44,2.44-6.84,3.69-10.24.79-2.12,1.62-4.23,2.43-6.34l.26,0V132c0,6,0,6,6,5.8,2-.05,2.18-1,1.74-4a77.42,77.42,0,0,1,.1-22.08c.37-2.62-.27-3.34-2.48-3.12a31,31,0,0,1-6.81,0c-2.06-.26-3.06.19-3.67,2C1540.53,115.49,1538.68,120.37,1536.77,125.6Zm173.28-.7a13.27,13.27,0,0,1-.91-1.05c-2.94-4.42-5.81-8.88-8.83-13.23a4.54,4.54,0,0,0-2.68-2,35.09,35.09,0,0,0-7.1,0,2.48,2.48,0,0,0-1.64,1.57,11.15,11.15,0,0,0-.11,3.12c0,7.33,0,14.67,0,22,0,1.89.62,2.75,2.55,2.47a9.17,9.17,0,0,1,1,0c5.24-.11,4.74.95,4.77-4.79,0-3.81,0-7.61,0-11.42a3.89,3.89,0,0,1,1.66,1.45q2.84,4.27,5.65,8.56c4.15,6.36,4.13,6.3,11.78,6.24a2.29,2.29,0,0,0,2.27-2.31q-.07-12.24,0-24.5c0-1.76-.56-2.63-2.44-2.49a20.34,20.34,0,0,1-3.49,0c-2-.19-2.57.73-2.53,2.59C1710.11,115.52,1710.05,119.92,1710.05,124.9Zm-79.84,39.95c2-1.85,4.25-3.17,5.39-5.13,3.86-6.64-.66-14-8.52-14.22-4.95-.12-9.91.07-14.86-.08-2.1-.06-2.81.59-2.77,2.72.1,6.9,0,13.82,0,20.72s-1.39,5.93,6.4,6c1.46,0,2-.71,1.93-2.07,0-1.81-.08-3.63.05-5.44a9.27,9.27,0,0,1,.8-2.36,8.21,8.21,0,0,1,2.64,1.21c1.8,1.83,3.43,3.84,5.09,5.82,2.41,2.88,8.36,4,12.12,2.1ZM1610,127.57c.6-.32,1-.53,1.32-.7,4.36-2.05,6.37-5.64,5.77-10.3a8.54,8.54,0,0,0-8-7.56c-5.89-.48-11.83-.35-17.75-.36a2.13,2.13,0,0,0-1.51,1.44q-.13,13.09,0,26.18c0,.51.9,1.38,1.46,1.45,1.65.2,3.34,0,5,.09,1.38.06,1.88-.58,1.87-1.87,0-1.82-.07-3.64,0-5.45a11,11,0,0,1,.71-2.43,8.66,8.66,0,0,1,2.63,1.25c2.16,2.28,4.14,4.73,6.22,7.08.45.5,1,1.24,1.57,1.26,3,.12,6.08.06,9.12.06l.24-.56Zm30.15,32.68c0,4,.07,8,0,11.94-.05,2,.76,2.69,2.72,2.67,5.72-.08,11.45,0,17.17,0,6,0,4.84.5,5-5,.06-1.86-.65-2.45-2.43-2.42-4.05.08-8.1,0-12.15,0-1.46,0-1.92-.58-1.92-2s.72-1.88,2.36-1.75a50.21,50.21,0,0,0,7.46.05c6.56-.48,6.4,1.62,6.38-5,0-1.68-.62-2.35-2.36-2.31-4,.09-8,0-11.93,0-1.28,0-1.92-.31-1.91-1.75s.42-2,1.91-2c3.14.06,6.28,0,9.42,0,6-.08,5,.77,5.15-5.3,0-1.76-.79-2.1-2.94-1.88a96.75,96.75,0,0,1-19.1,0c-2.2-.21-2.87.44-2.86,2.2C1640.2,151.87,1640.17,156.06,1640.17,160.25Zm-122.42-.15c0,3.84,0,7.68,0,11.52,0,3.65,0,3.15,4.9,3.22,4.62.07,9.26.06,13.89,0,7-.09,6,.63,6.1-4.6,0-2.65-.14-2.79-2.88-2.8q-5.65,0-11.31,0c-1.3,0-2.28-.08-2.32-1.84s1-2,2.4-1.94c2.93.05,5.86,0,8.79,0,5.59,0,4.74.69,4.9-4.92.06-1.91-.73-2.4-2.48-2.36-3.63.09-7.26.05-10.89,0-1.25,0-2.7.43-2.72-1.79s1.49-1.91,2.84-1.92c2.93,0,5.86,0,8.79,0,5.54,0,4.79.49,4.91-5,0-2.31-1.12-2.51-4.27-2.11a66.46,66.46,0,0,1-16.91,0c-2.89-.38-3.8.08-3.76,2.19C1517.8,151.86,1517.75,156,1517.75,160.1Zm42.81-36.73c0,4,0,8.1,0,12.15,0,1.68.52,2.34,2.29,2.31,6-.08,12,0,18,0,5,0,4.53.9,4.61-4.78,0-1.75-.66-2.33-2.35-2.3-4.12.07-8.24,0-12.36,0-1.54,0-1.88-.73-1.87-2.08s.5-2,2.23-1.85a42.09,42.09,0,0,0,7.53.09c6.47-.55,6.49,1.54,6.55-4.5,0-2-.63-2.91-2.77-2.84-3.77.13-7.54,0-11.31.05-1.4,0-2.23-.28-2.24-2s1-1.84,2.31-1.82c3.07,0,6.15,0,9.22,0,5.57-.06,5,.83,5-5.24,0-2.2-1.39-2.3-4.3-1.85a55.13,55.13,0,0,1-17-.09c-2.76-.44-3.6.19-3.58,2.12C1560.59,115,1560.56,119.18,1560.56,123.37Zm133.74,22.35a14,14,0,0,0-1.55-.24c-5.17,0-10.34-.08-15.5.06a12.45,12.45,0,0,0-4.62,1.13,8.82,8.82,0,0,0-4.85,9.57c.58,4,3,6.57,7.11,7.07a89.32,89.32,0,0,0,9,.36c1.43,0,2.61.4,2.58,2s-1.37,1.72-2.61,1.73c-3.42,0-6.84,0-10.26,0-5.69,0-4.92-.53-5,5.06,0,1.73.6,2.37,2.3,2.35,4.4-.07,8.8.06,13.19-.09a17.82,17.82,0,0,0,5.3-1,9.12,9.12,0,0,0,5.54-9.41c-.44-4.21-2.85-7-7.12-7.55a81.32,81.32,0,0,0-9-.33c-1.26,0-2.51-.15-2.57-1.76s1.24-1.95,2.59-2c3.49,0,7,0,10.47,0a2.93,2.93,0,0,0,2.16-.84C1692.48,150,1693.26,148,1694.3,145.72Zm28.1.08a11.88,11.88,0,0,0-1.69-.31c-5.16,0-10.32-.07-15.48,0a12.25,12.25,0,0,0-4.24,1,8.93,8.93,0,0,0-5.15,9.21c.6,4.51,2.77,7,7.05,7.57,2.68.36,5.41.27,8.12.37,1.52.06,3.5-.24,3.49,1.94s-2.11,1.77-3.55,1.8c-3.13.07-6.27,0-9.41,0-5.54,0-4.82-.51-4.93,5.18,0,1.65.64,2.24,2.22,2.22,4.46-.05,8.93.08,13.39-.09a17.89,17.89,0,0,0,5.48-1.16c3.56-1.33,5.55-5.26,5.15-9.61a7.48,7.48,0,0,0-6.72-7.17,82.32,82.32,0,0,0-9.17-.38c-1.43,0-2.88-.21-2.81-2s1.54-1.73,2.84-1.73c3.41,0,6.83,0,10.25,0,.71,0,1.8-.16,2.06-.62C1720.44,150.1,1721.33,148,1722.4,145.8Zm-205.57-8a17.27,17.27,0,0,0-.53-1.8c-3.77-8.64-7.52-17.28-11.41-25.87a3.31,3.31,0,0,0-2.37-1.48c-2.22-.21-4.47,0-6.7-.09a2.54,2.54,0,0,0-2.67,1.84c-3.63,8.38-7.34,16.74-11,25.12-.27.61-.46,1.25-.84,2.3a29.72,29.72,0,0,1,4.47,0c3.34.53,5.39-.66,6.15-4a2.29,2.29,0,0,1,2.3-1.76c3.22.06,6.45-.07,9.66.09a3.45,3.45,0,0,1,2.13,1.48c.61.82.76,1.95,1.29,2.84a2.38,2.38,0,0,0,1.49,1.19C1511.35,137.85,1513.92,137.78,1516.83,137.78Zm171.07,0a16.15,16.15,0,0,0-.58-2c-3.68-8.36-7.39-16.71-11-25.09a3.12,3.12,0,0,0-3.79-2.07,16.08,16.08,0,0,1-4.49,0c-2.17-.33-3.25.4-4,2.18-3.57,8.26-7.24,16.48-10.85,24.72-.27.61-.41,1.27-.74,2.31a42.19,42.19,0,0,1,5.07,0c2.73.34,4.55-.38,5.16-3.33.4-2,1.79-2.55,3.74-2.4a27.9,27.9,0,0,0,5.85,0c3.25-.46,5.13.73,6,3.89.18.67,1,1.66,1.5,1.7C1682.3,137.86,1684.94,137.76,1687.9,137.76Zm-144.67,7.76c.81,1,1.17,1.54,1.57,2,3.23,3.66,6.44,7.34,9.75,10.93,1,1.12,1.06,1.82,0,2.95-2.82,3-5.52,6.11-8.24,9.19-1,1.16-2,2.38-3,3.57l.31.68c2.48,0,4.95-.06,7.42,0a4.11,4.11,0,0,0,3.59-1.7c2-2.41,4.06-4.72,6.26-7.26a48.18,48.18,0,0,1,4.47,5.19c2.06,3.25,4.87,4.26,8.52,3.79a35,35,0,0,1,4.58,0l.29-.6c-.59-.74-1.14-1.52-1.76-2.23-3.17-3.63-6.32-7.26-9.56-10.83a1.77,1.77,0,0,1,0-2.83c3.19-3.51,6.33-7.07,9.46-10.63a26.17,26.17,0,0,0,1.54-2.24c-3,0-5.41.1-7.81,0a4.47,4.47,0,0,0-4.08,2c-1.73,2.16-3.6,4.19-5.53,6.43-2.16-2.48-4.09-4.75-6.09-7-.49-.54-1.16-1.26-1.78-1.29C1550.08,145.45,1547,145.52,1543.23,145.52Zm36,14.5c0,4.25,0,8.51,0,12.77,0,1.54.63,2.16,2.33,2a22.09,22.09,0,0,1,3.9,0c1.55.13,2.21-.53,2.2-1.92,0-1.88.06-3.77,0-5.65,0-1.35.54-1.86,1.88-1.83,2.58,0,5.16,0,7.74-.05a9.62,9.62,0,0,0,7.46-3.67A9.83,9.83,0,0,0,1606,151c-1.67-3.77-4.91-5.45-8.9-5.53-5.23-.1-10.47,0-15.7-.06-1.67,0-2.18.63-2.15,2.22C1579.32,151.78,1579.27,155.9,1579.27,160Zm73.29-29.32c-2.22,0-3.74.08-5.25,0-3.73-.23-5.9-1.75-6.45-4.82a15.27,15.27,0,0,1,0-5.18,5.1,5.1,0,0,1,4.45-4.4,47.32,47.32,0,0,1,5.84-.35c5.75-.14,5,1,5.09-5.36,0-1.6-.72-2.06-2.17-2-2.59,0-5.18-.09-7.75.06-3.68.21-7.16,1-10,3.66-4.44,4.2-5.57,12.36-2.47,18.73,2.36,4.87,8.36,7.71,14.4,6.76a2,2,0,0,0,1.33-.8C1650.54,135.13,1651.37,133.24,1652.56,130.7Zm-23.75-7.49c0-3,0-6,0-9-.06-6.61.76-5.49-5.67-5.69-2-.06-2.66.71-2.64,2.67.07,6.91,0,13.82,0,20.73,0,6,0,5.92,6,5.92,1.73,0,2.35-.57,2.32-2.29C1628.76,131.44,1628.8,127.32,1628.81,123.21Z"/><path class="cls-6" d="M1536.77,125.6c1.91-5.23,3.76-10.11,5.46-15a2.59,2.59,0,0,1,2.91-2c2.72.09,5.44.06,8.16,0,1.4,0,2,.51,2,2q-.06,12.67,0,25.34c0,1.44-.48,1.93-1.94,2-6,.16-6,.2-6-5.8V119.46l-.24-.09c-.82,2.13-1.66,4.25-2.45,6.39-1.25,3.4-2.52,6.8-3.69,10.24a2.37,2.37,0,0,1-2.6,1.83c-5.23,0-5.28.11-7.18-4.84-1.63-4.21-3.13-8.48-5.07-12.72-.06.54-.15,1.09-.16,1.64,0,4.54-.06,9.08,0,13.61,0,1.7-.51,2.44-2.27,2.3a34.46,34.46,0,0,0-4.19,0c-1.28.05-1.75-.57-1.75-1.77q0-12.76,0-25.54c0-1.46.69-2,2.07-2,2.79,0,5.58.09,8.37,0,1.71-.07,2.48.68,3,2.22,1.54,4.48,3.21,8.92,4.84,13.38A16.13,16.13,0,0,0,1536.77,125.6Z"/><path class="cls-6" d="M1710.05,124.9c0-5,.06-9.38,0-13.77,0-1.85.51-2.76,2.49-2.59a22.27,22.27,0,0,0,3.56,0c1.86-.14,2.42.74,2.41,2.49q-.07,12.25,0,24.51c0,1.72-.62,2.28-2.34,2.3-7.58.06-7.57.1-11.71-6.24q-2.81-4.29-5.65-8.56a3.89,3.89,0,0,0-1.66-1.45c0,3.81,0,7.61,0,11.42,0,5.74.47,4.68-4.77,4.79a9.17,9.17,0,0,0-1,0c-1.93.28-2.56-.58-2.55-2.47.07-7.33,0-14.67,0-22a11.15,11.15,0,0,1,.11-3.12,2.48,2.48,0,0,1,1.64-1.57,35.09,35.09,0,0,1,7.1,0,4.54,4.54,0,0,1,2.68,2c3,4.35,5.89,8.81,8.83,13.23A13.27,13.27,0,0,0,1710.05,124.9Z"/><path class="cls-6" d="M1630.21,164.85l8.32,9.23c-3.76,1.93-9.71.78-12.12-2.1-1.66-2-3.29-4-5.09-5.82a8.21,8.21,0,0,0-2.64-1.21,9.27,9.27,0,0,0-.8,2.36c-.13,1.81-.08,3.63-.05,5.44,0,1.36-.47,2.08-1.93,2.07-7.79,0-6.31.87-6.4-6s0-13.82,0-20.72c0-2.13.67-2.78,2.77-2.72,5,.15,9.91,0,14.86.08,7.86.18,12.38,7.58,8.52,14.22C1634.46,161.68,1632.21,163,1630.21,164.85Zm-7.46-12.08v0c-1.18,0-2.37,0-3.55,0-1.45.05-1.4,1.17-1.33,2.13s-.55,2.58,1.11,2.69a36.82,36.82,0,0,0,7.5-.15,3.12,3.12,0,0,0,2-2.33c0-.8-1.28-1.86-2.22-2.21S1623.93,152.77,1622.75,152.77Z"/><path class="cls-6" d="M1610,127.57l8.68,9.58-.29.56c-3,0-6.05.06-9.07-.06-.54,0-1.12-.76-1.57-1.26-2.08-2.35-4.06-4.8-6.22-7.08a8.66,8.66,0,0,0-2.63-1.25,11,11,0,0,0-.71,2.43c-.11,1.81-.06,3.63,0,5.45,0,1.29-.49,1.93-1.87,1.87-1.67-.07-3.36.11-5-.09-.56-.07-1.46-.94-1.46-1.45q-.13-13.08,0-26.18a2.13,2.13,0,0,1,1.51-1.44c5.92,0,11.86-.12,17.75.36a8.54,8.54,0,0,1,8,7.56c.6,4.66-1.41,8.25-5.77,10.3C1611,127,1610.62,127.25,1610,127.57Zm-7.09-11.66v0h-3.33c-1.45,0-1.49,1-1.4,2s-.64,2.69,1.17,2.82a51.9,51.9,0,0,0,7.27-.07,2.09,2.09,0,0,0,2-2.43,2.16,2.16,0,0,0-2.19-2.29C1605.29,115.83,1604.11,115.91,1602.93,115.91Z"/><path class="cls-6" d="M1640.17,160.25c0-4.19,0-8.38,0-12.57,0-1.57.52-2.25,2.2-2.24,6.91.07,13.82.06,20.73,0,1.43,0,2,.47,2,1.94-.12,6.07.82,5.22-5.15,5.3-3.14,0-6.28.05-9.42,0-1.49,0-1.91.59-1.91,2s.63,1.77,1.91,1.75c4,0,8,0,11.93,0,1.74,0,2.36.63,2.36,2.31,0,6,.15,4.88-4.68,5q-4.81.08-9.63,0c-1.31,0-1.89.37-1.89,1.78s.46,2,1.92,2c4,0,8.1,0,12.15,0,1.78,0,2.49.56,2.43,2.42-.21,5.5.92,5-5,5-5.72,0-11.45-.05-17.17,0-2,0-2.77-.65-2.72-2.67C1640.24,168.21,1640.17,164.23,1640.17,160.25Z"/><path class="cls-6" d="M1517.75,160.1c0-4.12,0-8.24,0-12.35,0-1.7.55-2.33,2.3-2.31q10.15.1,20.31,0c1.71,0,2.37.52,2.33,2.27-.12,5.47.63,4.95-4.91,5-2.93,0-5.86,0-8.79,0-1.35,0-2.86-.39-2.84,1.92s1.47,1.78,2.72,1.79c3.63,0,7.26.07,10.89,0,1.75,0,2.54.45,2.48,2.36-.16,5.61.69,4.87-4.9,4.92-2.93,0-5.86,0-8.79,0-1.39,0-2.44,0-2.4,1.94s1,1.85,2.32,1.84q5.65,0,11.31,0c2.74,0,2.9.15,2.88,2.8-.05,4.83.74,4.59-4.63,4.59h-17c-3.29,0-3.3,0-3.3-3.21C1517.74,167.78,1517.75,163.94,1517.75,160.1Z"/><path class="cls-6" d="M1560.56,123.37c0-4.19,0-8.38,0-12.58,0-1.56.53-2.27,2.19-2.25,6.85,0,13.69,0,20.53,0,1.47,0,2.18.49,2.17,2.06,0,6.07.52,5.18-5,5.24-3.07,0-6.15,0-9.22,0-1.3,0-2.32.05-2.31,1.82s.84,2,2.24,2c3.77,0,7.54.08,11.31-.05,2.14-.07,2.79.79,2.77,2.84,0,5.3-.08,4.34-4.43,4.4-3.36,0-6.71,0-10.06,0-1.4,0-1.81.57-1.82,1.87s.33,2.1,1.87,2.08c4.12-.06,8.24,0,12.36,0,1.69,0,2.37.55,2.35,2.3-.08,5.68.36,4.74-4.61,4.78-6,.05-12,0-18,0-1.77,0-2.32-.63-2.29-2.31C1560.61,131.47,1560.56,127.42,1560.56,123.37Z"/><path class="cls-6" d="M1694.3,145.72c-1,2.25-1.82,4.25-2.89,6.09a2.93,2.93,0,0,1-2.16.84c-3.49.09-7,0-10.47,0-1.35,0-2.66.2-2.59,2s1.31,1.73,2.57,1.76a81.32,81.32,0,0,1,9,.33c4.27.57,6.68,3.34,7.12,7.55a9.12,9.12,0,0,1-5.54,9.41,17.82,17.82,0,0,1-5.3,1c-4.39.15-8.79,0-13.19.09-1.7,0-2.34-.62-2.3-2.35.12-5.59-.65-5,5-5.06,3.42,0,6.84,0,10.26,0,1.24,0,2.58-.12,2.61-1.73s-1.15-2-2.58-2a89.32,89.32,0,0,1-9-.36c-4.13-.5-6.53-3.07-7.11-7.07a8.82,8.82,0,0,1,4.85-9.57,12.45,12.45,0,0,1,4.62-1.13c5.16-.14,10.33-.06,15.5-.06A14,14,0,0,1,1694.3,145.72Z"/><path class="cls-6" d="M1722.4,145.8c-1.07,2.21-2,4.3-3.1,6.24-.26.46-1.35.61-2.06.62-3.42.06-6.84,0-10.25,0-1.3,0-2.78.06-2.84,1.73s1.38,2,2.81,2a82.32,82.32,0,0,1,9.17.38,7.48,7.48,0,0,1,6.72,7.17c.4,4.35-1.59,8.28-5.15,9.61a17.89,17.89,0,0,1-5.48,1.16c-4.46.17-8.93,0-13.39.09-1.58,0-2.25-.57-2.22-2.22.11-5.69-.61-5.16,4.93-5.18,3.14,0,6.28,0,9.41,0,1.44,0,3.53.48,3.55-1.8s-2-1.88-3.49-1.94c-2.71-.1-5.44,0-8.12-.37-4.28-.57-6.45-3.06-7.05-7.57a8.93,8.93,0,0,1,5.15-9.21,12.25,12.25,0,0,1,4.24-1c5.16-.12,10.32-.06,15.48,0A11.88,11.88,0,0,1,1722.4,145.8Z"/><path class="cls-6" d="M1516.83,137.78c-2.91,0-5.48.07-8-.06a2.38,2.38,0,0,1-1.49-1.19c-.53-.89-.68-2-1.29-2.84a3.45,3.45,0,0,0-2.13-1.48c-3.21-.16-6.42,0-9.63-.09-1.24,0-2,.41-2.3,1.62-.73,3.4-2.79,4.64-6.18,4.1a29.72,29.72,0,0,0-4.47,0c.38-1.05.57-1.69.84-2.3,3.67-8.38,7.38-16.74,11-25.12a2.54,2.54,0,0,1,2.67-1.84c2.23.07,4.48-.12,6.7.09a3.31,3.31,0,0,1,2.37,1.48c3.89,8.59,7.64,17.23,11.41,25.87A17.27,17.27,0,0,1,1516.83,137.78Zm-14.51-12.93-3-7.38-.63,0-3,7.33Z"/><path class="cls-6" d="M1687.9,137.76c-3,0-5.6.1-8.22-.08-.55,0-1.32-1-1.5-1.7-.85-3.16-2.73-4.35-6-3.89a27.9,27.9,0,0,1-5.85,0c-1.95-.15-3.34.43-3.74,2.4-.61,3-2.43,3.67-5.16,3.33a42.19,42.19,0,0,0-5.07,0c.33-1,.47-1.7.74-2.31,3.61-8.24,7.28-16.46,10.85-24.72a3.15,3.15,0,0,1,3.5-2.24,38,38,0,0,0,5.44,0,3,3,0,0,1,3.37,2.11c3.65,8.38,7.36,16.73,11,25.09A16.15,16.15,0,0,1,1687.9,137.76Zm-14.47-12.85-3.4-8.11c-1.21,2.94-2.23,5.4-3.35,8.11Z"/><path class="cls-6" d="M1543.23,145.52c3.74,0,6.85-.07,10,.06.62,0,1.29.75,1.78,1.29,2,2.22,3.93,4.49,6.09,7,1.93-2.24,3.8-4.27,5.53-6.43a4.47,4.47,0,0,1,4.08-2c2.4.14,4.82,0,7.81,0a26.17,26.17,0,0,1-1.54,2.24c-3.13,3.56-6.27,7.12-9.46,10.63a1.77,1.77,0,0,0,0,2.83c3.24,3.57,6.39,7.2,9.56,10.83.58.66,1.09,1.38,1.63,2.07l-.16.76a35,35,0,0,0-4.58,0c-3.65.47-6.46-.54-8.52-3.79a48.18,48.18,0,0,0-4.47-5.19c-2.2,2.54-4.28,4.85-6.26,7.26a4.11,4.11,0,0,1-3.59,1.7c-2.48-.08-5,0-7.43,0l-.3-.68c1-1.19,1.94-2.41,3-3.57,2.72-3.08,5.42-6.19,8.24-9.19,1.06-1.13,1-1.83,0-2.95-3.31-3.59-6.52-7.27-9.75-10.93C1544.4,147.06,1544,146.55,1543.23,145.52Z"/><path class="cls-6" d="M1579.27,160c0-4.12,0-8.24,0-12.36,0-1.59.48-2.24,2.15-2.22,5.23.08,10.47,0,15.7.06,4,.08,7.23,1.76,8.9,5.53a9.83,9.83,0,0,1-1.23,10.65,9.62,9.62,0,0,1-7.46,3.67c-2.58.1-5.16.1-7.74.05-1.34,0-1.91.48-1.88,1.83,0,1.88,0,3.77,0,5.65,0,1.29-.56,2-1.88,1.93-1.53,0-3.07,0-4.6,0s-2-.61-2-2C1579.31,168.53,1579.27,164.27,1579.27,160Zm13-1.78v.08a35.89,35.89,0,0,0,4.15-.32,2.37,2.37,0,0,0,2-2.79,2.33,2.33,0,0,0-2.35-2.45c-2.3,0-4.6-.1-6.9,0a1.94,1.94,0,0,0-1.4,1.11c-.87,3.29,0,4.35,3.27,4.36Z"/><path class="cls-6" d="M1652.56,130.7c-1.19,2.54-2,4.43-3,6.26a2,2,0,0,1-1.33.8c-6,1-12-1.89-14.4-6.76-3.1-6.37-2-14.53,2.47-18.73,2.84-2.67,6.32-3.45,10-3.66,2.57-.15,5.16,0,7.75-.06,1.45,0,2.19.43,2.17,2-.09,6.35.66,5.22-5.09,5.36a47.32,47.32,0,0,0-5.84.35,5.1,5.1,0,0,0-4.45,4.4,15.27,15.27,0,0,0,0,5.18c.55,3.07,2.72,4.59,6.45,4.82C1648.82,130.78,1650.34,130.7,1652.56,130.7Z"/><path class="cls-6" d="M1628.81,123.21c0,4.11,0,8.23,0,12.34,0,1.72-.59,2.29-2.32,2.29-6,0-6,0-6-5.92,0-6.91,0-13.82,0-20.73,0-2,.6-2.73,2.64-2.67,6.43.2,5.61-.92,5.67,5.69C1628.83,117.21,1628.81,120.21,1628.81,123.21Z"/><path class="cls-4" d="M1622.75,152.77c1.18,0,2.48-.29,3.52.09s2.18,1.41,2.22,2.21a3.12,3.12,0,0,1-2,2.33,36.82,36.82,0,0,1-7.5.15c-1.66-.11-1-1.68-1.11-2.69s-.12-2.08,1.33-2.13c1.18,0,2.37,0,3.55,0Z"/><path class="cls-4" d="M1602.93,115.91c1.18,0,2.36-.08,3.54,0a2.16,2.16,0,0,1,2.19,2.29,2.09,2.09,0,0,1-2,2.43,51.9,51.9,0,0,1-7.27.07c-1.81-.13-1.07-1.78-1.17-2.82s0-2,1.4-2h3.33Z"/><path class="cls-4" d="M1502.32,124.85h-6.67l3-7.33.63,0Z"/><path class="cls-4" d="M1673.43,124.91h-6.75c1.12-2.71,2.14-5.17,3.35-8.11Z"/><path class="cls-4" d="M1592.32,158.24h-1.25c-3.3,0-4.14-1.07-3.27-4.36a1.94,1.94,0,0,1,1.4-1.11c2.3-.11,4.6-.06,6.9,0a2.33,2.33,0,0,1,2.35,2.45,2.37,2.37,0,0,1-2,2.79,35.89,35.89,0,0,1-4.15.32Z"/><path class="cls-7" d="M1346.81,74.5h98.28c1.19,0,2.4-.09,3.59,0a7.79,7.79,0,0,1,6.58,6.6c.09,1,0,2,0,3,0,39.74-.11,79.48.15,119.22,0,4.61-2.69,6.62-5.23,9.21-.33.33-1.07.33-1.63.36-1,.06-2,0-3,0q-98.28,0-196.55,0c-4.68,0-8-1.34-10.19-5.78a9.28,9.28,0,0,1-.6-4.51q-.1-33.68,0-67.35c0-16.89.12-33.78-.08-50.67,0-4.19,1.93-6.92,4.78-9.36a4.68,4.68,0,0,1,2.66-.74c2.19-.1,4.39,0,6.59,0Zm-30.9,3.58h-3.6c-21.37,0-42.75,0-64.12,0-2.32,0-4.51.08-5.59,2.32a10.5,10.5,0,0,0-.78,4.43q-.06,35.18,0,70.35c0,16.1.11,32.2-.11,48.29a5.62,5.62,0,0,0,2.77,5.38c1.19.72,3,.5,4.56.5,38.55,0,77.11.08,115.66,0,8.43,0,16.91.9,25.29-1.11,4.52-1.08,9.21-1.73,13.35-3.9,6.16-3.23,12.82-5.76,17.47-11.33,5.17-2.11,7.27-7.19,10.39-11.16,2.7-3.44,4.42-7.67,6.47-11.6,3.26-6.24,5.64-15.48,5.64-21.52,0-4,.2-8-.06-11.92a37.76,37.76,0,0,0-1.58-9.47c-1.91-5.74-3.75-11.56-7.1-16.74-3-4.62-5.82-9.38-9.79-13.23-5.86-5.7-12.79-9.77-20.17-13.37a54.22,54.22,0,0,0-23.35-5.75C1359.46,77.9,1337.68,78.08,1315.91,78.08Z"/><path class="cls-8" d="M1315.91,78.08c21.77,0,43.55-.18,65.32.09a54.22,54.22,0,0,1,23.35,5.75c7.38,3.6,14.31,7.67,20.17,13.37,4,3.85,6.8,8.61,9.79,13.23,3.35,5.18,5.19,11,7.1,16.74a37.76,37.76,0,0,1,1.58,9.47c.26,4,.07,8,.06,11.92,0,6-2.38,15.28-5.64,21.52-2.05,3.93-3.77,8.16-6.47,11.6-3.12,4-5.22,9-10.39,11.16-4.65,5.57-11.31,8.1-17.47,11.33-4.14,2.17-8.83,2.82-13.35,3.9-8.38,2-16.86,1.08-25.29,1.11-38.55.11-77.11,0-115.66,0-1.55,0-3.37.22-4.56-.5a5.62,5.62,0,0,1-2.77-5.38c.22-16.09.11-32.19.11-48.29q0-35.17,0-70.35a10.5,10.5,0,0,1,.78-4.43c1.08-2.24,3.27-2.32,5.59-2.32,21.37.07,42.75,0,64.12,0Zm45.82,65.61c0-3.18-2.37-8.31-4.14-10.78-2.85-3.95-7.34-4.36-11.31-5.92-3.76,1.5-8,1.83-11.26,4.51-3.76,3.07-3.75,7.95-5.68,11.9,1.67,3.08,1.21,6.88,3.93,9.7,3.64,3.77,7.8,6,13,6.09C1353.3,159.37,1362,150.56,1361.73,143.69Zm48-.73c0,4.37.07,8.75,0,13.12,0,1.59.51,2.12,2,1.95a24,24,0,0,1,2.4,0c2.75,0,2.72,0,2.81-2.93.07-2.13.24-4.26.37-6.4,1.41,1.66,3.48,3.11,4.11,5,1.48,4.48,4.75,4.57,8.4,4.28.51,0,1.28-.29,1.43-.66a2,2,0,0,0-.41-1.55c-1.08-1.56-2.25-3.05-3.37-4.58-1-1.37-2.71-2.74-2.75-4.15,0-1.24,1.78-2.56,2.85-3.78,1.85-2.1,3.5-4.68,2.4-7.23-1.21-2.82-1.38-7.32-6.46-6.68-3.63-2.39-7.67-.75-11.5-1.12-2.25-.22-2.28,0-2.28,9.95Zm-160.71,0c0,4.37,0,8.73,0,13.1,0,1.5.37,2.09,2,2,2.59-.13,5.18-.06,7.78,0,6.1.07,10.4-2.55,13.12-8.08,1.37-2.79,1.23-5.61,1.11-8.46a12.38,12.38,0,0,0-5.56-10.21c-2.88-2.07-6-2.29-9-2.94-2.84-.63-5.93-.09-8.91-.06-.17,2.9-.39,5.81-.5,8.71C1248.92,139,1249,141,1249,142.93Zm45.89-14.75c-8.62,0-12.36,6-8.81,12.95.56,1.09,1.1,1.13,2,1.5,2.36,1,4.65,2.24,6.92,3.47a4.53,4.53,0,0,1,1.86,5.51c-.73,1.66-2.51,1.95-4.92.74a10.29,10.29,0,0,1-2.85-1.71c-1.28-1.31-2.13-1.18-3.38.07-2.5,2.51-2.57,2.44,0,5a17.86,17.86,0,0,0,1.7,1.67,9.34,9.34,0,0,0,8.17,1.69c2.63-.7,5.89-1.51,7.19-4,2.64-5.05,2.81-10.61-3.31-13.76-1.14-.59-2.35-1.07-3.49-1.66a8,8,0,0,1-2.82-1.73,6.31,6.31,0,0,1-.84-3.16,4.74,4.74,0,0,1,2-.59c1.16-.05,2.54-.25,3.44.28,1.1.64,1.85,1.44,2.94.19a14.51,14.51,0,0,0,2.21-2.67c.19-.37-.52-1.36-1-1.87C1299.75,128,1297,128.05,1294.88,128.18Zm17.75,15.89c-1.18-8.18,6-12.28,13.41-8.72a12.67,12.67,0,0,0,1.92,1.13,1.54,1.54,0,0,0,1.33-.71c1-3.76-.5-6.39-4.26-7.58-3.29-1-4-1.27-8.58.06a15.08,15.08,0,0,0-9.73,8.44,15.83,15.83,0,0,0,.69,14.73c2.46,4.35,6.15,5.82,10.16,7.4,3.5,1.38,6.8-.14,10.07-1,1.63-.42,2.51-5.83,1.24-6.77a2.14,2.14,0,0,0-1.69-.17c-1.23.4-2.38,1-3.58,1.48-.86.34-1.95,1-2.6.79-2.59-1-5.37-1.58-7.38-4C1312.08,147.24,1312.89,145.4,1312.63,144.07ZM1363,128.19c-.59,0-1.19,0-1.79,0-2,.07-2.19.41-1.27,2.39,1.63,3.5,2.88,7.14,4.26,10.73,2.16,5.64,4.88,11.07,7.06,16.7.83,2.17,2.26.9,3.39,1.12.4.08,1.4-.73,1.41-1.17.15-3.68,3.23-6.13,3.86-9.77.57-3.31,2.79-6.33,4.23-9.5,1.36-3,2.69-6,3.92-9.08.14-.34-.39-1.35-.64-1.36-2-.1-4.23-.59-5.86.18-1.08.51-1.17,2.93-1.86,4.43a77.19,77.19,0,0,0-5,12.8c-.06.21-.65.39-1,.39s-.94-.21-1-.4c-.83-5-3.92-9.1-5.07-14C1366.89,128.39,1366.29,128.19,1363,128.19Zm27.52,15h-.23l.72,14.7c4.79,0,9.57.08,14.35.09.56,0,1.55-.1,1.6-.32a10,10,0,0,0,.27-3.43c-.06-.4-1.07-.93-1.67-1-2-.12-4,0-6,0-3,0-3,0-3-3.28,0-.59,0-1.19,0-1.79,0-3.24,0-3.25,3-3.28,1.59,0,3.19,0,4.79,0,.54,0,1.5-.21,1.54-.45a9.77,9.77,0,0,0,.12-3.49c-.07-.37-1.2-.74-1.86-.78-2-.1-4-.09-6,0-1.3.05-1.63-.47-1.68-1.71-.18-4.25-.23-4.25,3.88-4.28a45,45,0,0,1,4.79,0c2,.22,2.22-.76,2.19-2.42-.06-3.53,0-3.55-3.39-3.57-3.79,0-7.59,0-11.39,0-1.44,0-2.13.24-2.09,1.92C1390.59,134.45,1390.51,138.82,1390.51,143.2Zm-115.14-.08c0,4.36,0,8.72,0,13.09,0,1.14.14,1.93,1.55,1.81a8.92,8.92,0,0,1,1.79,0c1.89.24,2.82,0,2.76-2.45-.21-8.13-.07-16.26-.09-24.39,0-3,0-2.93-3.31-3-1.89-.06-2.91,0-2.75,2.48C1275.57,134.78,1275.37,139,1275.37,143.12Zm159.52-12.27c0-2.3,0-2.51-1.19-2.66-1.46-.2-3.41.93-3.61,2.11s1.3,2.43,3.06,2.67S1435,132.09,1434.89,130.85Z"/><path class="cls-9" d="M1361.73,143.69c.27,6.87-8.43,15.68-15.44,15.5-5.22-.13-9.38-2.32-13-6.09-2.72-2.82-2.26-6.62-3.93-9.7,1.93-4,1.92-8.83,5.68-11.9,3.27-2.68,7.5-3,11.26-4.51,4,1.56,8.46,2,11.31,5.92C1359.36,135.38,1361.73,140.51,1361.73,143.69Z"/><path class="cls-10" d="M1409.7,143v-4.77c0-9.93,0-10.17,2.28-9.95,3.83.37,7.87-1.27,11.5,1.12,5.08-.64,5.25,3.86,6.46,6.68,1.1,2.55-.55,5.13-2.4,7.23-1.07,1.22-2.88,2.54-2.85,3.78,0,1.41,1.75,2.78,2.75,4.15,1.12,1.53,2.29,3,3.37,4.58a2,2,0,0,1,.41,1.55c-.15.37-.92.62-1.43.66-3.65.29-6.92.2-8.4-4.28-.63-1.92-2.7-3.37-4.11-5-.13,2.14-.3,4.27-.37,6.4-.09,2.89-.06,2.89-2.81,2.93a24,24,0,0,0-2.4,0c-1.52.17-2.07-.36-2-1.95C1409.77,151.71,1409.7,147.33,1409.7,143Zm7.2-5.53c0,4.19.33,4.58,3.52,3.88a2.74,2.74,0,0,0,2.47-2.69c.07-1.55.3-3.34-1.46-4a11.88,11.88,0,0,0-3.94-.38c-.19,0-.53.56-.56.89A20.27,20.27,0,0,0,1416.9,137.43Z"/><path class="cls-11" d="M1249,142.93c0-2-.07-4,0-6,.11-2.9.33-5.81.5-8.71,3,0,6.07-.57,8.91.06,3,.65,6.09.87,9,2.94a12.38,12.38,0,0,1,5.56,10.21c.12,2.85.26,5.67-1.11,8.46-2.72,5.53-7,8.15-13.12,8.08-2.6,0-5.19-.1-7.78,0-1.61.07-2-.52-2-2C1249,151.66,1249,147.3,1249,142.93Zm6,.43c0,2.37,0,4.74,0,7.11,0,2.72.89,3.59,3.48,2.69a20.24,20.24,0,0,0,6.74-3.7c2.08-1.88,2-4.82,1.74-7.5-.38-3.53-2.84-5.94-5.51-7.65-1.4-.9-4-.54-5.78.05-.63.2-.56,2.77-.65,4.27S1255,141.79,1255,143.36Z"/><path class="cls-12" d="M1294.88,128.18c2.14-.13,4.87-.2,7,1.93.5.51,1.21,1.5,1,1.87a14.51,14.51,0,0,1-2.21,2.67c-1.09,1.25-1.84.45-2.94-.19-.9-.53-2.28-.33-3.44-.28a4.74,4.74,0,0,0-2,.59,6.31,6.31,0,0,0,.84,3.16,8,8,0,0,0,2.82,1.73c1.14.59,2.35,1.07,3.49,1.66,6.12,3.15,5.95,8.71,3.31,13.76-1.3,2.49-4.56,3.3-7.19,4a9.34,9.34,0,0,1-8.17-1.69,17.86,17.86,0,0,1-1.7-1.67c-2.58-2.57-2.51-2.5,0-5,1.25-1.25,2.1-1.38,3.38-.07a10.29,10.29,0,0,0,2.85,1.71c2.41,1.21,4.19.92,4.92-.74a4.53,4.53,0,0,0-1.86-5.51c-2.27-1.23-4.56-2.45-6.92-3.47-.85-.37-1.39-.41-2-1.5C1282.52,134.23,1286.26,128.21,1294.88,128.18Z"/><path class="cls-13" d="M1312.63,144.07c.26,1.33-.55,3.17,1,5.05,2,2.46,4.79,3,7.38,4,.65.26,1.74-.45,2.6-.79,1.2-.47,2.35-1.08,3.58-1.48a2.14,2.14,0,0,1,1.69.17c1.27.94.39,6.35-1.24,6.77-3.27.85-6.57,2.37-10.07,1-4-1.58-7.7-3-10.16-7.4a15.83,15.83,0,0,1-.69-14.73,15.08,15.08,0,0,1,9.73-8.44c4.57-1.33,5.29-1.11,8.58-.06,3.76,1.19,5.27,3.82,4.26,7.58a1.54,1.54,0,0,1-1.33.71,12.67,12.67,0,0,1-1.92-1.13C1318.64,131.79,1311.45,135.89,1312.63,144.07Z"/><path class="cls-13" d="M1363,128.19c3.3,0,3.9.2,4.67,3.48,1.15,4.88,4.24,9,5.07,14,0,.19.64.4,1,.4s.93-.18,1-.39a77.19,77.19,0,0,1,5-12.8c.69-1.5.78-3.92,1.86-4.43,1.63-.77,3.88-.28,5.86-.18.25,0,.78,1,.64,1.36-1.23,3-2.56,6.07-3.92,9.08-1.44,3.17-3.66,6.19-4.23,9.5-.63,3.64-3.71,6.09-3.86,9.77,0,.44-1,1.25-1.41,1.17-1.13-.22-2.56,1.05-3.39-1.12-2.18-5.63-4.9-11.06-7.06-16.7-1.38-3.59-2.63-7.23-4.26-10.73-.92-2-.76-2.32,1.27-2.39C1361.8,128.17,1362.4,128.19,1363,128.19Z"/><path class="cls-12" d="M1390.51,143.2c0-4.38.08-8.75,0-13.12,0-1.68.65-2,2.09-1.92,3.8.07,7.6,0,11.39,0,3.41,0,3.33,0,3.39,3.57,0,1.66-.17,2.64-2.19,2.42a45,45,0,0,0-4.79,0c-4.11,0-4.06,0-3.88,4.28,0,1.24.38,1.76,1.68,1.71,2-.08,4-.09,6,0,.66,0,1.79.41,1.86.78a9.77,9.77,0,0,1-.12,3.49c0,.24-1,.43-1.54.45-1.6.06-3.2,0-4.79,0-3,0-3,0-3,3.28,0,.6,0,1.2,0,1.79,0,3.24,0,3.25,3,3.28,2,0,4-.07,6,0,.6,0,1.61.56,1.67,1a10,10,0,0,1-.27,3.43c0,.22-1,.32-1.6.32-4.78,0-9.56-.06-14.35-.09l-.72-14.7Z"/><path class="cls-13" d="M1275.37,143.12c0-4.16.2-8.34-.07-12.49-.16-2.43.86-2.54,2.75-2.48,3.28.1,3.31,0,3.31,3,0,8.13-.12,16.26.09,24.39.06,2.42-.87,2.69-2.76,2.45a8.92,8.92,0,0,0-1.79,0c-1.41.12-1.56-.67-1.55-1.81C1275.4,151.84,1275.37,147.48,1275.37,143.12Z"/><path class="cls-14" d="M1434.89,130.85c.08,1.24.12,2.38-1.74,2.12s-3.26-1.48-3.06-2.67,2.15-2.31,3.61-2.11C1434.85,128.34,1434.94,128.55,1434.89,130.85Z"/><path class="cls-15" d="M1416.9,137.43a20.27,20.27,0,0,1,0-2.34c0-.33.37-.89.56-.89a11.88,11.88,0,0,1,3.94.38c1.76.7,1.53,2.49,1.46,4a2.74,2.74,0,0,1-2.47,2.69C1417.23,142,1416.88,141.62,1416.9,137.43Z"/><path class="cls-16" d="M1255,143.36c0-1.57-.08-3.16,0-4.73s0-4.07.65-4.27c1.79-.59,4.38-1,5.78-.05,2.67,1.71,5.13,4.12,5.51,7.65.3,2.68.34,5.62-1.74,7.5a20.24,20.24,0,0,1-6.74,3.7c-2.59.9-3.45,0-3.48-2.69C1255,148.1,1255,145.73,1255,143.36Z"/><path class="cls-17" d="M765.35,215.05H967a17.36,17.36,0,0,0,17.36-17.36V93.87A17.36,17.36,0,0,0,967,76.51H782.71a17.36,17.36,0,0,0-17.36,17.36V215.05Z"/><path class="cls-18" d="M875,190a59.8,59.8,0,1,0-19.72-44.38A59.62,59.62,0,0,0,875,190Z"/><path class="cls-18" d="M967.06,179a1.88,1.88,0,0,1,2-1.87,1.85,1.85,0,0,1,1.88,1.87,1.94,1.94,0,1,1-3.87,0Zm2,1.53a1.53,1.53,0,0,0,1.41-1.53,1.43,1.43,0,0,0-1.41-1.41,1.45,1.45,0,0,0-1.52,1.41A1.55,1.55,0,0,0,969.05,180.53Zm-.35-.59h-.35v-1.76h.7a.68.68,0,0,1,.47.12c.12.12.24.24.24.35s-.12.47-.35.47l.35.82h-.47l-.24-.7h-.35v.7Zm0-1.05h.47c.12,0,.12-.12.12-.24a.11.11,0,0,0-.12-.11h-.47v.35Z"/><path class="cls-19" d="M894.38,139.32a59,59,0,0,0-1-6.34H856.7a60.76,60.76,0,0,1,1.76-6.34h33.11c-.72-2.15-1.55-4.27-2.47-6.34H860.92c1.09-2.16,2.26-4.28,3.52-6.34h21.14a39.6,39.6,0,0,0-4.58-6.34H869a61.57,61.57,0,0,1,6-6.34A59.88,59.88,0,1,0,875,190a77.87,77.87,0,0,0,6.11-6.34H869a62.25,62.25,0,0,1-4.58-6.34h21.14A54.42,54.42,0,0,0,889.1,171H860.92a50.69,50.69,0,0,1-2.46-6.34h33.1a63.38,63.38,0,0,0,1.77-6.34,58.18,58.18,0,0,0,1-6.34,57.19,57.19,0,0,0,0-12.68Z"/><path class="cls-20" d="M967.06,159.52a1.88,1.88,0,0,1,2-1.88,1.85,1.85,0,0,1,1.88,1.88,2,2,0,0,1-1.88,2,2,2,0,0,1-2-2Zm2,1.52a1.53,1.53,0,0,0,1.41-1.52,1.42,1.42,0,0,0-1.41-1.41,1.45,1.45,0,0,0-1.52,1.41A1.55,1.55,0,0,0,969.05,161Zm-.35-.59h-.35v-1.76h.7a.68.68,0,0,1,.47.12c.12.12.24.24.24.35s-.12.47-.35.47l.35.82h-.47l-.24-.7h-.35v.7Zm0-1h.47c.12,0,.12-.12.12-.24a.11.11,0,0,0-.12-.11h-.47v.35Z"/><path class="cls-17" d="M854.7,162.92a16.47,16.47,0,0,1-4.93.82c-3,0-4.93-1.88-4.93-5.4a15.64,15.64,0,0,1,.23-2.23l.35-2.35.36-2,2.81-16.9h6.23l-.71,3.76H858l-.94,6.22h-3.88l-1.76,10.1c0,.35-.11.7-.11.93,0,1.3.7,1.88,2.23,1.88a10.07,10.07,0,0,0,2-.23l-.82,5.4Zm20.08-.24a21.78,21.78,0,0,1-6.7,1.06c-6.92,0-11-3.75-11-11,0-8.46,4.81-14.8,11.39-14.8,5.28,0,8.68,3.52,8.68,9a26.41,26.41,0,0,1-.82,6.11H863.39v.7c0,2.94,1.88,4.35,5.63,4.35a15.89,15.89,0,0,0,6.81-1.53l-1.05,6.1ZM870.9,148v-1.17a2.87,2.87,0,0,0-3-3.17c-2.11,0-3.52,1.52-4.11,4.34ZM805,163.27h-6.46l3.76-23.36L794,163.27h-4.46L789.07,140l-4,23.24h-6.22l5-30.41h9.28l.35,18.79,6.22-18.79h10.34Zm15.61-11c-.7,0-.82-.12-1.29-.12-3.64,0-5.52,1.41-5.52,3.76a2.29,2.29,0,0,0,2.35,2.58c3.17,0,4.34-2.59,4.46-6.22Zm5.17,11h-5.64l.12-2.58c-1.41,2-3.29,3.05-6.81,3.05-3.17,0-5.75-2.82-5.75-6.81a12.65,12.65,0,0,1,.47-3.17c1-3.87,4.93-6.22,10.8-6.34a23.88,23.88,0,0,1,2.81.12,4.79,4.79,0,0,0,.24-1.64c0-1.65-1.29-2.12-4.34-2.12a25.13,25.13,0,0,0-5.4.71l-.83.35H811l.94-5.52a24,24,0,0,1,7.52-1.29c5.63,0,8.57,2.47,8.57,7.28a20.47,20.47,0,0,1-.35,4.81l-1.3,8.81-.23,1.52-.23,1.29v.83l-.12.7ZM906,138.85a12.31,12.31,0,0,1,5.75,1.65l1.06-6.7c-.59-.23-.71-.23-1.53-.58l-2.7-.59a10.38,10.38,0,0,0-2.94-.35c-3.17,0-5,0-7,1.29a15.51,15.51,0,0,0-3.87,3.17l-.71-.24-6.69,4.7.35-2.58h-6.93l-3.87,24.65h6.46L885.7,150a22.43,22.43,0,0,1,1.41-2.47,3.63,3.63,0,0,1,3.52-1.53h.47c-.12,1.41-.24,3.06-.24,4.7,0,8.1,4.58,13.15,11.63,13.15a18,18,0,0,0,5.63-.94l1.17-6.93a12.23,12.23,0,0,1-5.51,1.53c-3.76,0-6-2.7-6-7.39,0-6.58,3.28-11.28,8.22-11.28Zm54.82-6-1.41,8.69a6.57,6.57,0,0,0-5.86-3.4c-3.41,0-6.58,1.88-8.57,5.52l-4.12-2.47.36-2.58H934.3l-4,24.65h6.57L939,150s1.65-1.88,2.12-2.47a3.64,3.64,0,0,1,2.82-1.53,23.12,23.12,0,0,0-1.18,7.28c0,6.23,3.29,10.33,8,10.33a7.51,7.51,0,0,0,6-2.81l-.36,2.46h6.22l4.94-30.41ZM953,157.4c-2.23,0-3.29-1.53-3.29-4.81,0-4.81,2-8.34,5.05-8.34,2.23,0,3.41,1.76,3.41,4.93,0,4.82-2.12,8.22-5.17,8.22ZM923,152.24c-.7,0-.82-.12-1.29-.12-3.64,0-5.52,1.41-5.52,3.76a2.29,2.29,0,0,0,2.35,2.58c3.17,0,4.34-2.59,4.46-6.22Zm5.17,11h-5.64l.12-2.58c-1.41,2-3.29,3.05-6.81,3.05-3.17,0-6-2.7-6-6.81.12-5.87,4.46-9.51,11.51-9.51a23.88,23.88,0,0,1,2.81.12,4.79,4.79,0,0,0,.24-1.64c0-1.65-1.29-2.12-4.35-2.12a24.3,24.3,0,0,0-5.4.71l-.93.35h-.36l.94-5.52a24,24,0,0,1,7.52-1.29c5.63,0,8.57,2.47,8.57,7.28a20.66,20.66,0,0,1-.36,4.81l-1.29,8.81-.23,1.52-.24,1.29-.11.83ZM839.32,143.9a43.06,43.06,0,0,1,4.93.35l.94-5.75a57.33,57.33,0,0,0-5.87-.47c-7.16,0-9.63,3.87-9.63,8.45,0,2.94,1.41,5.17,4.82,6.7,2.7,1.29,3.17,1.52,3.17,2.58,0,1.53-1.41,2.46-4,2.46a21.29,21.29,0,0,1-5.75-.93l-.7,5.63h.12l1.17.24a5.7,5.7,0,0,0,1.64.23,25.73,25.73,0,0,0,3.76.23c7.16,0,10.21-2.69,10.21-8.21,0-3.41-1.64-5.4-4.93-6.81-2.7-1.29-3.05-1.41-3.05-2.59s1.17-2.11,3.17-2.11Z"/><path class="cls-20" d="M914.58,131.93l-1.06,6.57a12.4,12.4,0,0,0-5.75-1.64c-4.93,0-8.34,4.69-8.34,11.39,0,4.57,2.35,7.39,6.11,7.39a12.23,12.23,0,0,0,5.51-1.53L909.88,161a21.76,21.76,0,0,1-5.75.83c-6.93,0-11.27-4.94-11.27-13,0-10.92,6-18.43,14.56-18.43a20.88,20.88,0,0,1,2.93.23l2.7.71c.82.35.94.35,1.53.59ZM893.8,136.5a1.6,1.6,0,0,0-.71-.11c-2.11,0-3.29,1.05-5.28,4l.59-3.76h-6l-3.88,24.77H885c2.35-15.14,2.94-17.72,6.11-17.72h.47A22.25,22.25,0,0,1,894,136.5ZM856.34,161a14.06,14.06,0,0,1-4.69.82c-3.29,0-5.17-1.87-5.17-5.4a15.74,15.74,0,0,1,.24-2.23l.35-2.46.35-1.88L850.24,133h6.45l-.7,3.64h3.29l-.94,6.11h-3.29l-1.76,10.21c0,.47-.12.82-.12,1.06,0,1.29.71,1.88,2.24,1.88a6.24,6.24,0,0,0,1.76-.24l-.83,5.4Zm-25-16.55c0,3,1.52,5.28,4.93,6.81,2.7,1.29,3.05,1.64,3.05,2.81,0,1.53-1.17,2.24-3.76,2.24a17.71,17.71,0,0,1-5.75-1.06l-.94,5.75h.35l1.18.24a5.33,5.33,0,0,0,1.64.23c1.53.12,2.82.24,3.64.24,6.81,0,10-2.59,10-8.22,0-3.41-1.29-5.4-4.58-6.93-2.7-1.17-3.05-1.53-3.05-2.58,0-1.41,1.05-2.12,3.17-2.12a38.09,38.09,0,0,1,4.69.47l.94-5.75a50.39,50.39,0,0,0-5.75-.47c-7.28,0-9.74,3.76-9.74,8.34Zm132.9,16.9H958l.35-2.46a7.72,7.72,0,0,1-6,2.7c-4.69,0-7.86-4-7.86-10.22,0-8.21,4.81-15.14,10.56-15.14,2.59,0,4.46,1,6.22,3.4l1.41-8.69h6.46l-4.93,30.41Zm-9.63-5.87c3.06,0,5.17-3.4,5.17-8.33,0-3.06-1.17-4.82-3.41-4.82-2.93,0-5,3.41-5,8.34C951.32,153.88,952.38,155.52,954.61,155.52Zm-78.43,5.29a21.66,21.66,0,0,1-6.69,1.05c-7.28,0-11-3.87-11-11,0-8.57,4.81-14.8,11.39-14.8,5.28,0,8.68,3.53,8.68,9a33.35,33.35,0,0,1-.7,6.11H864.92a1.7,1.7,0,0,0-.12.7c0,2.82,1.88,4.35,5.75,4.35a15.76,15.76,0,0,0,6.69-1.53Zm-3.63-14.68v-1.29c0-2-1.06-3.17-3.06-3.17s-3.52,1.64-4.1,4.46Zm-65.87,15.26h-6.46L804,138l-8.34,23.36h-4.46l-.47-23.24-4,23.24h-6l5-30.41h9.28l.35,18.79L801.63,131h10.1l-5.05,30.41Zm16.09-11a7.69,7.69,0,0,0-1.53-.12c-3.64,0-5.52,1.29-5.52,3.76a2.35,2.35,0,0,0,2.35,2.58c2.7,0,4.58-2.58,4.7-6.22Zm4.69,11h-5.4l.12-2.58a8.08,8.08,0,0,1-6.81,2.93c-3.52,0-5.87-2.69-5.87-6.69,0-6,4.11-9.51,11.39-9.51a20.37,20.37,0,0,1,2.58.12,4.1,4.1,0,0,0,.23-1.53c0-1.64-1.05-2.23-4.11-2.23a18.84,18.84,0,0,0-5.4.71l-.94.23-.58.12.94-5.52a26.43,26.43,0,0,1,7.75-1.29c5.63,0,8.57,2.46,8.57,7.16a26.21,26.21,0,0,1-.59,4.93l-1.29,8.81-.24,1.52-.12,1.29-.11.83-.12.7Zm97.68-11a7.55,7.55,0,0,0-1.52-.12c-3.64,0-5.52,1.29-5.52,3.76a2.35,2.35,0,0,0,2.35,2.58c2.58,0,4.58-2.58,4.69-6.22Zm4.7,11h-5.4l.12-2.58a8.25,8.25,0,0,1-6.81,2.93c-3.52,0-6-2.69-6-6.69,0-6,4.23-9.51,11.5-9.51a20.44,20.44,0,0,1,2.59.12,4.1,4.1,0,0,0,.23-1.53c0-1.64-1.06-2.23-4.11-2.23a18.79,18.79,0,0,0-5.4.71l-.94.23-.58.12.93-5.52a26.49,26.49,0,0,1,7.75-1.29c5.64,0,8.57,2.46,8.57,7.16a25.94,25.94,0,0,1-.58,4.93l-1.3,8.81-.23,1.52-.24,1.29-.11.83v.7Zm17.38-24.89a.93.93,0,0,0-.59-.11c-2.11,0-3.41,1.05-5.4,4l.59-3.76H936l-4,24.77h6.58c2.23-15.14,2.93-17.72,6-17.72H945a25.56,25.56,0,0,1,2.46-7.17Z"/><rect class="cls-1" x="199.41" y="76.33" width="538.74" height="138.77" rx="33.68"/><path class="cls-21" d="M713.66,206.28H222.37a27.54,27.54,0,0,1-27.55-27.55V114.45A27.55,27.55,0,0,1,222.37,86.9H713.66a27.55,27.55,0,0,1,27.55,27.55v64.28A27.54,27.54,0,0,1,713.66,206.28Zm23-91.83a23,23,0,0,0-23-23H222.37a23,23,0,0,0-23,23v64.28a23,23,0,0,0,23,23H713.66a23,23,0,0,0,23-23Z"/><path class="cls-20" d="M473.53,171.56h-6l4.64-11.45-9.23-23.29h6.33l5.8,15.85,5.85-15.85h6.33Zm-23-10a10,10,0,0,1-6.13-2.27V161H438.2V126.24h6.19v12.22a10.29,10.29,0,0,1,6.13-2.22c6.48,0,10.92,5.22,10.92,12.66s-4.44,12.66-10.92,12.66Zm-1.3-20a6.82,6.82,0,0,0-4.83,2.18v10.34a6.81,6.81,0,0,0,4.83,2.17c3.48,0,5.89-3,5.89-7.34s-2.41-7.35-5.89-7.35Zm-36.05,17.74a9.85,9.85,0,0,1-6.14,2.27c-6.43,0-10.92-5.22-10.92-12.66s4.49-12.66,10.92-12.66a10.09,10.09,0,0,1,6.14,2.22V126.24h6.23V161h-6.23Zm0-15.56a6.65,6.65,0,0,0-4.78-2.18c-3.53,0-5.95,3-5.95,7.35s2.42,7.34,5.95,7.34a6.63,6.63,0,0,0,4.78-2.17Zm-36.82,6.86c.38,3.67,3.28,6.18,7.34,6.18a14.8,14.8,0,0,0,7.2-2.27v5.18a19.81,19.81,0,0,1-8.22,1.88c-7.29,0-12.41-5.32-12.41-12.85,0-7.3,5-12.47,11.93-12.47,6.33,0,10.63,5,10.63,12.08a18.33,18.33,0,0,1-.1,2.27ZM382,141c-3,0-5.31,2.23-5.6,5.56h10.53c-.19-3.29-2.17-5.56-4.93-5.56Zm-21.89,3.82V161h-6.18V136.82h6.18v2.41a8.19,8.19,0,0,1,5.94-3,7.37,7.37,0,0,1,2,.24V142a8.23,8.23,0,0,0-2.17-.29A7.61,7.61,0,0,0,360.06,144.84Zm-27.59,5.75c.39,3.67,3.28,6.18,7.34,6.18a14.83,14.83,0,0,0,7.2-2.27v5.18a19.8,19.8,0,0,1-8.21,1.88c-7.3,0-12.42-5.32-12.42-12.85,0-7.3,5-12.47,11.93-12.47,6.33,0,10.63,5,10.63,12.08a20.36,20.36,0,0,1-.09,2.27Zm5.6-9.57c-3,0-5.31,2.23-5.6,5.56H343C342.81,143.29,340.83,141,338.07,141Zm-27.2,20-4.93-16.43L301.05,161H295.5l-8.31-24.16h6.18l4.88,16.43,4.88-16.43h5.61l4.88,16.43,4.88-16.43h6.18L316.42,161Zm-37.8.58c-7.29,0-12.46-5.27-12.46-12.66s5.17-12.66,12.46-12.66,12.42,5.22,12.42,12.66S280.37,161.56,273.07,161.56Zm0-20.15c-3.62,0-6.13,3-6.13,7.49s2.51,7.49,6.13,7.49,6.09-3,6.09-7.49S276.65,141.41,273.07,141.41ZM245.92,149h-5.56V161h-6.19V127.73h11.75c6.76,0,11.59,4.4,11.59,10.68S252.68,149,245.92,149Zm-.87-16.28h-4.69V144h4.69c3.57,0,6.09-2.27,6.09-5.61S248.62,132.76,245.05,132.76Zm460,18.66H679.49c.58,6.11,5.06,7.91,10.14,7.91a27.64,27.64,0,0,0,12.81-2.88V167A29.25,29.25,0,0,1,688,170.33c-12.7,0-21.6-8-21.6-23.68,0-13.27,7.55-23.82,20-23.82s18.85,10.54,18.85,23.89C705.19,148,705.07,150.72,705,151.42Zm-18.76-18c-3.26,0-6.88,2.46-6.88,8.34h13.48C692.85,135.93,689.46,133.46,686.25,133.46Zm-41,36.87a14.62,14.62,0,0,1-9.22-3.3l0,14.75-13,2.78V123.7h11.48l.68,3.22a14.6,14.6,0,0,1,10.21-4.09c9.16,0,17.78,8.25,17.78,23.43,0,16.57-8.53,24.07-17.86,24.07Zm-3-36A7.85,7.85,0,0,0,636,137l.08,19.37a7.79,7.79,0,0,0,6.15,2.47c4.82,0,8-5.25,8-12.27,0-6.81-3.28-12.16-8-12.16Zm-38.1-10.68h13.09v45.7H604.15Zm0-14.59,13.09-2.78V117l-13.09,2.78ZM590.2,138.42v31h-13V123.7h11.27l.81,3.85c3.06-5.61,9.15-4.47,10.89-3.84v12c-1.66-.54-6.86-1.32-9.94,2.73Zm-28,15c0,7.68,8.23,5.29,9.9,4.62V168.6c-1.74,1-4.89,1.73-9.15,1.73a13.13,13.13,0,0,1-13.54-13.42l.06-41.82,12.72-2.71V123.7h9.9v11.12h-9.9ZM546,155.59c0,9.38-7.47,14.74-18.31,14.74a36.06,36.06,0,0,1-14.25-3V154.92c4.37,2.38,9.94,4.17,14.27,4.17,2.9,0,5-.78,5-3.19,0-6.23-19.82-3.88-19.82-18.31,0-9.23,7.05-14.76,17.62-14.76a34.34,34.34,0,0,1,13,2.39V137.5a29.15,29.15,0,0,0-13-3.36c-2.73,0-4.43.79-4.43,2.83C526.07,142.83,546,140,546,155.59Z"/></g></g></svg>